# xmcd
#
# Track frame offsets: 
#        182
#        13827
#        28900
#        46977
#        62580
#        82150
#        102930
#        122012
#        150405
#        160832
#        174932
#        193612
#
# Disc length: 2739 seconds
#
# Revision: 3
# Processed by: cddbd v1.5.1PL0 Copyright (c) Steve Scherf et al.
# Submitted via: ExactAudioCopy v0.95a3
#
DISCID=930ab10c
DTITLE=Various Artist - American Folk Blues Festival '62
DYEAR=1962
DGENRE=Blues
TTITLE0=Memphis Slim - We're Gonna Rock
TTITLE1=T-Bone Walker - I Wanna See My Baby
TTITLE2=T-Bone Walker - I'm In Love
TTITLE3=Sonny Terry - I'm Crazy 'Bout You Baby
TTITLE4=Memphis Slim - Stewball
TTITLE5=John Lee Hooker - Let's Make It Baby
TTITLE6=John Lee Hooker - Shake It Baby
TTITLE7=John Lee Hooker - The Right Time
TTITLE8=Shakey Jake - Hey Baby
TTITLE9=Shakey Jake - Love My Baby
TTITLE10=Brownie McGhee - Crying At The Station
TTITLE11=Memphis Slim - Bye Bye Baby
EXTD=
EXTT0=
EXTT1=
EXTT2=
EXTT3=
EXTT4=
EXTT5=
EXTT6=
EXTT7=
EXTT8=
EXTT9=
EXTT10=
EXTT11=
PLAYORDER=
